# xmcd
#
# Track frame offsets: 
#        150
#        7690
#        10905
#        17162
#        20387
#        30050
#        33982
#        36372
#        58855
#        69387
#        75852
#        86240
#        93237
#        97547
#        105922
#        112482
#        118842
#        127300
#        139722
#        141887
#        156220
#        160947
#        167687
#        171137
#        182700
#        189077
#        193000
#        199120
#        210950
#        221320
#        226462
#        241610
#        252725
#        270710
#        279802
#
# Disc length: 3816 seconds
#
# Revision: 3
# Processed by: cddbd v1.5.2PL0 Copyright (c) Steve Scherf et al.
# Submitted via: ExactAudioCopyFreeDBPlugin 1.0
#
DISCID=c70ee623
DTITLE=Lead Belly - Last Sessions [CD1]
DYEAR=1948
DGENRE=Folklore
TTITLE0=Yes, I Was Standing In The Bottom
TTITLE1=Yes, I'm Going Down To Louisiana
TTITLE2=I Ain't Going Down To The Well No More
TTITLE3=Dick Ligger's Holler
TTITLE4=Miss Liza Jane
TTITLE5=Dog Latin Song
TTITLE6=Leaving Blues
TTITLE7=Go Down, Old Hannah
TTITLE8=Blue Tail Fly
TTITLE9=Nobody In This World Is Better Than Us
TTITLE10=We're In The Same Boat, Brother
TTITLE11=Looky, Looky Yonder
TTITLE12=Jolly O' The Ransom
TTITLE13=Old Ship Of Zion
TTITLE14=Bring Me A Little Water, Silvy
TTITLE15=Mistreatin' Mamma
TTITLE16=Black Betty
TTITLE17=Ain't Goin Down To The Well No More
TTITLE18=I'm Going Back Down In Louisiana
TTITLE19=I Don't Know You, What Have I Done
TTITLE20=Rock Island Line
TTITLE21=Old Man, Will Your Dog Catch A Rabbit
TTITLE22=Shorty George
TTITLE23=Stewball
TTITLE24=Bottle Up and Go
TTITLE25=You Know I Got To Do It
TTITLE26=Ain't It A Shame To Go Fishin' On A Sunday
TTITLE27=I Ain't Gonna Drink Anymore
TTITLE28=Winnsboro Cotton Mill Blues
TTITLE29=My Lindy Lou
TTITLE30=I'm Thinking Of A Friend
TTITLE31=He Never Said A Mumbling Word
TTITLE32=I Don't Want No More Of Army Life
TTITLE33=In The World
TTITLE34=I Want To Go Home
EXTD=YEAR: 1994
EXTT0=
EXTT1=
EXTT2=
EXTT3=
EXTT4=
EXTT5=
EXTT6=
EXTT7=
EXTT8=
EXTT9=
EXTT10=
EXTT11=
EXTT12=
EXTT13=
EXTT14=
EXTT15=
EXTT16=
EXTT17=
EXTT18=
EXTT19=
EXTT20=
EXTT21=
EXTT22=
EXTT23=
EXTT24=
EXTT25=
EXTT26=
EXTT27=
EXTT28=
EXTT29=
EXTT30=
EXTT31=
EXTT32=
EXTT33=
EXTT34=
PLAYORDER=
